<svg xmlns="http://www.w3.org/2000/svg" width="120" height="54" viewBox="0 0 120 54"><title>vote-bg</title><g fill="none" fill-rule="evenodd"><g fill="#757575"><path d="M26 13.222a.788.788 0 0 0-.223-.547l-5.25-5.444A.733.733 0 0 0 20 7c-.2 0-.387.085-.527.23l-5.25 5.445a.788.788 0 0 0-.223.547c0 .426.34.778.75.778h10.5c.41 0 .75-.352.75-.778zM26 40.778a.788.788 0 0 1-.223.547l-5.25 5.444A.733.733 0 0 1 20 47a.733.733 0 0 1-.527-.23l-5.25-5.445a.788.788 0 0 1-.223-.547c0-.426.34-.778.75-.778h10.5c.41 0 .75.352.75.778z"/></g><g fill="#F6A623"><path d="M66 13.222a.788.788 0 0 0-.223-.547l-5.25-5.444A.733.733 0 0 0 60 7c-.2 0-.387.085-.527.23l-5.25 5.445a.788.788 0 0 0-.223.547c0 .426.34.778.75.778h10.5c.41 0 .75-.352.75-.778zM66 40.778a.788.788 0 0 1-.223.547l-5.25 5.444A.733.733 0 0 1 60 47a.733.733 0 0 1-.527-.23l-5.25-5.445a.788.788 0 0 1-.223-.547c0-.426.34-.778.75-.778h10.5c.41 0 .75.352.75.778z"/></g><path d="M106 13.222a.788.788 0 0 0-.223-.547l-5.25-5.444A.733.733 0 0 0 100 7c-.2 0-.387.085-.527.23l-5.25 5.445a.788.788 0 0 0-.223.547c0 .426.34.778.75.778h10.5c.41 0 .75-.352.75-.778z" fill="#009A61"/><path d="M106 40.778a.788.788 0 0 1-.223.547l-5.25 5.444A.733.733 0 0 1 100 47a.733.733 0 0 1-.527-.23l-5.25-5.445a.788.788 0 0 1-.223-.547c0-.426.34-.778.75-.778h10.5c.41 0 .75.352.75.778z" fill="#AD3A37"/></g></svg>